#!OML:ASF H:\BabyWalks\Project 1\Capture day 1\Session 1\baby.ASF
:FULLY-SPECIFIED
:DEGREES
340
root -12.0775 17.2796 9.90625 -4.1174 41.727 -9.08484
lowerback 20.0947 3.71979 7.8261
upperback 5.11452 6.88889 4.1936
thorax -5.24073 3.3708 -1.54641
lowerneck 4.99084 9.90054 12.7595
upperneck -20.3948 12.5382 -17.4407
head -4.80646 6.80525 -8.20452
rclavicle -4.77083e-014 2.62396e-014
rhumerus -35.6493 15.8791 -78.2774
rradius 58.5193
rwrist -8.04423
rhand -14.6263 -16.9248
rfingers 7.12502
rthumb 11.5252 -46.588
lclavicle -4.77083e-014 2.62396e-014
lhumerus -54.2477 -11.2536 81.4532
lradius 44.4825
lwrist 0.00896527
lhand 6.62867 13.9331
lfingers 7.12502
lthumb 31.9222 41.1546
rfemur 3.37634 10.8827 29.8594
rtibia 24.5315
rfoot -19.6661 9.95021
rtoes -0.183429
lfemur -32.0457 -7.70765 -7.54461
ltibia 32.3988
lfoot -6.33625 -15.9168
ltoes -1.40835
341
root -12.0211 17.2691 9.96342 -4.00047 41.8206 -9.02215
lowerback 20.0954 3.66753 7.47645
upperback 5.14185 6.72968 3.96735
thorax -5.23535 3.29609 -1.55952
lowerneck 4.88894 10.0614 12.5867
upperneck -20.6733 12.7797 -17.0454
head -4.88588 6.90273 -8.06012
rclavicle 9.93923e-015 -4.05521e-014
rhumerus -35.8284 15.7161 -78.8878
rradius 58.5689
rwrist -7.73263
rhand -14.5823 -17.0178
rfingers 7.12502
rthumb 11.5675 -46.6786
lclavicle 9.93923e-015 -4.05521e-014
lhumerus -53.5367 -11.4114 81.3582
lradius 44.6276
lwrist -0.0864499
lhand 6.03639 13.7589
lfingers 7.12502
lthumb 31.358 41.0915
rfemur 3.25586 10.9499 29.8503
rtibia 25.2663
rfoot -19.8228 9.91107
rtoes -0.182022
lfemur -32.4364 -7.40721 -7.77443
ltibia 33.4748
lfoot -6.84748 -16.3247
ltoes -1.31996
342
root -11.9663 17.2602 10.021 -3.91912 41.9511 -9.03507
lowerback 20.0862 3.59579 7.17575
upperback 5.1659 6.55599 3.75502
thorax -5.2249 3.21419 -1.58014
lowerneck 4.76273 10.2271 12.4141
upperneck -20.9042 13.0304 -16.6459
head -4.9474 7.00337 -7.9101
rclavicle 6.79844e-014 -1.82882e-014
rhumerus -36.0278 15.5395 -79.5016
rradius 58.5897
rwrist -7.42997
rhand -14.525 -17.17
rfingers 7.12502
rthumb 11.6229 -46.8276
lclavicle 6.79844e-014 -1.82882e-014
lhumerus -52.8155 -11.5975 81.2571
lradius 44.8282
lwrist -0.131383
lhand 5.40959 13.596
lfingers 7.12502
lthumb 30.7606 41.0428
rfemur 3.11958 10.9778 29.8963
rtibia 25.9639
rfoot -19.9368 9.84424
rtoes -0.411904
lfemur -32.8396 -7.13246 -7.93435
ltibia 34.4849
lfoot -7.23409 -16.8045
ltoes -0.991878
343
root -11.9129 17.2527 10.0784 -3.87756 42.1142 -9.12602
lowerback 20.068 3.50472 6.93056
upperback 5.18433 6.36958 3.55763
thorax -5.21187 3.12574 -1.61157
lowerneck 4.62902 10.395 12.2361
upperneck -21.0969 13.2877 -16.2374
head -4.99807 7.1064 -7.75411
rclavicle 1.7175e-013 3.97569e-015
rhumerus -36.2276 15.3461 -80.1133
rradius 58.5351
rwrist -7.13623
rhand -14.4626 -17.2983
rfingers 7.12502
rthumb 11.683 -46.9525
lclavicle 1.7175e-013 3.97569e-015
lhumerus -52.0843 -11.8156 81.1517
lradius 45.0728
lwrist -0.121801
lhand 4.73867 13.417
lfingers 7.12502
lthumb 30.1207 40.9823
rfemur 2.99273 10.9634 29.9968
rtibia 26.5746
rfoot -19.9833 9.76348
rtoes -0.82605
lfemur -33.2427 -6.87532 -8.02835
ltibia 35.4337
lfoot -7.59449 -17.284
ltoes -0.743615
344
root -11.8603 17.2467 10.1353 -3.88063 42.3049 -9.29902
lowerback 20.0434 3.39452 6.74669
upperback 5.19717 6.17236 3.37921
thorax -5.19757 3.0316 -1.65361
lowerneck 4.47661 10.5672 12.0591
upperneck -21.2393 13.5519 -15.8328
head -5.03049 7.21254 -7.59533
rclavicle -7.67309e-014 -1.27222e-014
rhumerus -36.4215 15.1521 -80.7129
rradius 58.405
rwrist -6.85914
rhand -14.4105 -17.3495
rfingers 7.12502
rthumb 11.7333 -47.0009
lclavicle -7.67309e-014 -1.27222e-014
lhumerus -51.34 -12.063 81.0472
lradius 45.3583
lwrist -0.0572004
lhand 4.04436 13.2376
lfingers 7.12502
lthumb 29.458 40.9217
rfemur 2.88437 10.9104 30.1516
rtibia 27.0853
rfoot -19.9484 9.68749
rtoes -1.35499
lfemur -33.6359 -6.62939 -8.05837
ltibia 36.321
lfoot -7.96171 -17.6806
ltoes -0.66941
345
root -11.8081 17.241 10.1909 -3.9182 42.5117 -9.53839
lowerback 20.0155 3.27223 6.61849
upperback 5.20573 5.97209 3.21599
thorax -5.18221 2.93556 -1.70925
lowerneck 4.35087 10.7172 11.8956
upperneck -21.3973 13.7851 -15.4653
head -5.07359 7.30629 -7.45499
rclavicle -8.26944e-014 1.90833e-014
rhumerus -36.5976 14.9536 -81.2941
rradius 58.193
rwrist -6.59983
rhand -14.3522 -17.3171
rfingers 7.12502
rthumb 11.7895 -46.9653
lclavicle -8.26944e-014 1.90833e-014
lhumerus -50.5794 -12.3362 80.9414
lradius 45.6811
lwrist 0.0404669
lhand 3.32386 13.0413
lfingers 7.12502
lthumb 28.77 40.8444
rfemur 2.78815 10.8167 30.3477
rtibia 27.5019
rfoot -19.8428 9.61738
rtoes -2.05536
lfemur -34.0162 -6.39302 -8.03426
ltibia 37.1415
lfoot -8.28086 -18.0812
ltoes -0.462534
346
root -11.756 17.2372 10.2452 -3.95225 42.7229 -9.78958
lowerback 19.9833 3.14937 6.50662
upperback 5.21013 5.77486 3.05902
thorax -5.16824 2.84072 -1.76778
lowerneck 4.19319 10.8653 11.7366
upperneck -21.5043 14.0129 -15.1138
head -5.09578 7.39789 -7.31496
rclavicle -3.89618e-014 -3.49861e-014
rhumerus -36.745 14.7425 -81.849
rradius 57.8835
rwrist -6.3448
rhand -14.2894 -17.1683
rfingers 7.12502
rthumb 11.85 -46.813
lclavicle -3.89618e-014 -3.49861e-014
lhumerus -49.7976 -12.6384 80.8381
lradius 46.0247
lwrist 0.163475
lhand 2.57564 12.8144
lfingers 7.12502
lthumb 28.055 40.7367
rfemur 2.70226 10.7151 30.5376
rtibia 27.8459
rfoot -19.6703 9.58976
rtoes -2.68952
lfemur -34.3661 -6.16842 -7.99776
ltibia 37.8796
lfoot -8.58049 -18.4598
ltoes -0.207732
